<svg fill="none" height="24" viewBox="0 0 24 24" width="24" xmlns="http://www.w3.org/2000/svg"><g clip-rule="evenodd" fill="#000001" fill-rule="evenodd"><path d="m11.2305 6.68428c-1.1621-.78616-2.7305.04641-2.7305 1.44949v7.73243c0 1.4031 1.5684 2.2356 2.7305 1.4495l5.7153-3.8662c1.026-.694 1.026-2.205 0-2.899zm-1.2305 1.44949c0-.20044.2241-.31938.3901-.20707l5.7152 3.8662c.1466.0992.1466.315 0 .4142l-5.7152 3.8662c-.166.1123-.3901-.0067-.3901-.2071z"/><path d="m11.3049 0c-1.2427 0-2.25002 1.00736-2.25002 2.25v.39535c-.55157.17349-1.08205.39437-1.58663.6578l-.28001-.28001c-.87868-.87868-2.3033-.87868-3.18198 0l-.98305.98305c-.87868.87868-.87868 2.3033 0 3.18198l.27998.27998c-.26345.50462-.48434 1.03513-.65784 1.58673h-.39535c-1.24264 0-2.25 1.00732-2.25 2.25002v1.3902c0 1.2427 1.00736 2.25 2.25 2.25h.39535c.17349.5516.39437 1.0821.65779 1.5867l-.27996.2799c-.87868.8787-.87868 2.3033 0 3.182l.98305.9831c.87868.8786 2.3033.8786 3.18198 0l.27994-.28c.50462.2635 1.03513.4843 1.58673.6578v.3954c0 1.2426 1.00732 2.25 2.25002 2.25h1.3902c1.2427 0 2.25-1.0074 2.25-2.25v-.3954c.5516-.1735 1.0821-.3943 1.5867-.6578l.28.28c.8787.8786 2.3033.8786 3.182 0l.983-.9831c.8787-.8787.8787-2.3033 0-3.182l-.2799-.2799c.2634-.5046.4843-1.0351.6577-1.5867h.3954c1.2426 0 2.25-1.0073 2.25-2.25v-1.3902c0-1.2427-1.0074-2.25002-2.25-2.25002h-.3954c-.1735-.5516-.3943-1.08211-.6578-1.58673l.28-.27998c.8787-.87868.8787-2.3033 0-3.18198l-.9831-.98305c-.8786-.87868-2.3033-.87868-3.1819 0l-.28.28001c-.5046-.26343-1.0351-.48431-1.5867-.6578v-.39535c0-1.24264-1.0073-2.25-2.25-2.25zm-.75 2.25c0-.41421.3358-.75.75-.75h1.3902c.4142 0 .75.33579.75.75v.96302c0 .34441.2346.64456.5688.72778.8062.20075 1.566.51943 2.2601.93692.2951.17754.6733.1312.9169-.11237l.6815-.68155c.2929-.2929.7678-.2929 1.0607 0l.983.98305c.2929.29289.2929.76777 0 1.06066l-.6815.68154c-.2436.24357-.2899.62173-.1124.91691.4175.69411.7362 1.45391.937 2.26014.0832.3342.3834.5688.7278.5688h.963c.4142 0 .75.3358.75.75v1.3902c0 .4142-.3358.75-.75.75h-.963c-.3444 0-.6446.2346-.7278.5688-.2007.8062-.5194 1.566-.9369 2.2601-.1776.2951-.1312.6733.1123.9169l.6816.6815c.2929.2929.2929.7677 0 1.0606l-.9831.9831c-.2929.2929-.7678.2929-1.0607 0l-.6814-.6815c-.2436-.2436-.6218-.2899-.917-.1124-.6941.4175-1.4539.7362-2.2601.937-.3342.0832-.5688.3834-.5688.7278v.963c0 .4142-.3358.75-.75.75h-1.3902c-.4142 0-.75-.3358-.75-.75v-.963c0-.3444-.2346-.6446-.5688-.7278-.80623-.2008-1.56603-.5195-2.26014-.937-.29518-.1775-.67334-.1312-.91691.1124l-.6815.6815c-.29289.2929-.76777.2929-1.06066 0l-.98305-.9831c-.29289-.2929-.29289-.7677 0-1.0606l.68151-.6815c.24357-.2436.28991-.6218.11237-.9169-.41749-.6941-.73617-1.4539-.93692-2.2601-.08322-.3342-.38337-.5688-.72778-.5688h-.96302c-.41421 0-.75-.3358-.75-.75v-1.3902c0-.4142.33579-.75.75-.75h.96302c.34441 0 .64456-.2346.72778-.5688.20075-.80623.51945-1.56603.93697-2.26014.17755-.29518.1312-.67334-.11237-.91692l-.68153-.68153c-.2929-.29289-.2929-.76777 0-1.06066l.98305-.98305c.29289-.2929.76777-.2929 1.06066 0l.68155.68155c.24357.24357.62173.28991.91691.11237.69409-.41749 1.45386-.73617 2.26006-.93692.3342-.08322.5688-.38337.5688-.72778z"/></g></svg>