<svg xmlns="http://www.w3.org/2000/svg" viewBox="0 0 512 512" id="seo-feedback">
  <path fill="#2e77bc" d="m395.7 275.7-32.8-40.3c-2.4-2.9-6.9-2.9-9.3 0l-32.8 40.3c-3.2 3.9-.4 9.8 4.6 9.8h20.2c-12.8 37-48 63.7-89.4 63.7-33.4 0-62.8-17.4-79.6-43.7-2.6-4-7.7-5.5-12.1-3.5-.1 0-.1.1-.2.1-5.2 2.4-6.9 8.9-3.8 13.6 20.2 31.5 55.6 52.5 95.7 52.5 52 0 95.9-35.1 109.3-82.8H391c5.1 0 7.9-5.8 4.7-9.7zm-209.1-49.1h-20.2c12.8-37 48-63.7 89.4-63.7 33.4 0 62.8 17.4 79.6 43.7 2.6 4 7.7 5.5 12.1 3.5.1 0 .1-.1.2-.1 5.2-2.4 6.9-8.9 3.8-13.6-20.2-31.5-55.6-52.5-95.7-52.5-52 0-95.9 35.1-109.3 82.8H121c-5 0-7.8 5.8-4.6 9.8l32.8 40.3c2.4 2.9 6.9 2.9 9.3 0l32.8-40.3c3.1-4.1.3-9.9-4.7-9.9z"></path>
  <path fill="#3b4552" fill-rule="evenodd" d="m491.2 215.8-26.3-3.2c-6.7-.8-12.3-5.6-14.1-12.1-4.3-15.1-10.3-29.5-17.8-43-3.3-5.9-2.7-13.2 1.4-18.5l16.4-20.9c5.3-6.7 4.7-16.3-1.3-22.3l-33.2-33.2c-6-6-15.6-6.6-22.3-1.3l-21 16.3c-5.3 4.2-12.6 4.7-18.5 1.4-16.6-9.3-34.6-16.2-53.7-20.6l-4.6-37.7C295.2 12.4 288 6 279.5 6h-47c-8.5 0-15.7 6.4-16.7 14.8l-3.2 26.3c-.8 6.7-5.6 12.3-12.1 14.1-15.1 4.3-29.5 10.3-43 17.8-5.9 3.3-13.2 2.7-18.5-1.4l-20.9-16.4c-6.7-5.3-16.3-4.7-22.3 1.3L62.6 95.8c-6 6-6.6 15.6-1.3 22.3L77.6 139c4.2 5.3 4.7 12.6 1.4 18.5-7.5 13.5-13.5 27.9-17.8 43-1.8 6.5-7.4 11.3-14.1 12.1l-26.3 3.2C12.4 216.8 6 224 6 232.5v47c0 8.5 6.4 15.7 14.8 16.7l26.3 3.2c6.7.8 12.3 5.6 14.1 12.1 4.3 15.1 10.3 29.5 17.8 43 3.3 5.9 2.7 13.2-1.4 18.5l-16.4 20.9c-5.3 6.7-4.7 16.3 1.3 22.3l33.2 33.2c6 6 15.6 6.6 22.3 1.3l20.9-16.4c5.3-4.2 12.6-4.7 18.5-1.4 13.5 7.5 27.9 13.5 43 17.8 6.5 1.8 11.3 7.4 12.1 14.1l3.2 26.3c1 8.5 8.2 14.8 16.7 14.8h47c8.5 0 15.7-6.4 16.7-14.8l3.2-26.3c.8-6.7 5.6-12.3 12.1-14.1 15.1-4.3 29.5-10.3 43-17.8 5.9-3.3 13.2-2.7 18.5 1.4l20.9 16.4c6.7 5.3 16.3 4.7 22.3-1.3l33.2-33.2c6-6 6.6-15.6 1.3-22.3L434.4 373c-4.2-5.3-4.7-12.6-1.4-18.5 7.5-13.5 13.5-27.9 17.8-43 1.8-6.5 7.4-11.3 14.1-12.1l26.3-3.2c8.5-1 14.8-8.2 14.8-16.7v-47c0-8.5-6.4-15.7-14.8-16.7zM256 420.8c-90.7 0-164.1-73.5-164.1-164.1C91.9 166 165.3 92.6 256 92.6c90.7 0 164.1 73.5 164.1 164.1 0 90.7-73.4 164.1-164.1 164.1z" clip-rule="evenodd"></path>
</svg>
